PathFileType	4	(X/Y/Z)	Walk9.trc
DataRate	CameraRate	NumFrames	NumMarkers	Units	OrigDataRate	OrigDataStartFrame	OrigNumFrames
200.000000	200.000000	7	59	mm	200.000000	399	523
Frame#	Times		RFHD		RACR1		RUA1		RElbowM		RFA1		RWRU		LACR1		LUA1		LFA1		LWRU		RTH1		LTH2		LFHD		LTB2		RBack		RTH2		LTH4		LASI		CLAV		RTH3		RTB3		LCAR		RTB2		RTB1		LWRR		LTH3		RCAR		C7		RTB4		RElbow		RASI		T10		LBHD		LLFC		RWRR		RBHD		STRN		RPSI		LTB4		LToe		LTB1		LTH1		LElbowM		LElbow		LMMAL		RTH4		LPSI		LCAL		RMT5		LTB3		LMT5		LMT1		RLFC		LLMAL		RMT1		RToe		RCAL		RLMAL		RMMAL
			X1	Y1	Z1	X2	Y2	Z2	X3	Y3	Z3	X4	Y4	Z4	X5	Y5	Z5	X6	Y6	Z6	X7	Y7	Z7	X8	Y8	Z8	X9	Y9	Z9	X10	Y10	Z10	X11	Y11	Z11	X12	Y12	Z12	X13	Y13	Z13	X14	Y14	Z14	X15	Y15	Z15	X16	Y16	Z16	X17	Y17	Z17	X18	Y18	Z18	X19	Y19	Z19	X20	Y20	Z20	X21	Y21	Z21	X22	Y22	Z22	X23	Y23	Z23	X24	Y24	Z24	X25	Y25	Z25	X26	Y26	Z26	X27	Y27	Z27	X28	Y28	Z28	X29	Y29	Z29	X30	Y30	Z30	X31	Y31	Z31	X32	Y32	Z32	X33	Y33	Z33	X34	Y34	Z34	X35	Y35	Z35	X36	Y36	Z36	X37	Y37	Z37	X38	Y38	Z38	X39	Y39	Z39	X40	Y40	Z40	X41	Y41	Z41	X42	Y42	Z42	X43	Y43	Z43	X44	Y44	Z44	X45	Y45	Z45	X46	Y46	Z46	X47	Y47	Z47	X48	Y48	Z48	X49	Y49	Z49	X50	Y50	Z50	X51	Y51	Z51	X52	Y52	Z52	X53	Y53	Z53	X54	Y54	Z54	X55	Y55	Z55	X56	Y56	Z56	X57	Y57	Z57	X58	Y58	Z58	X59	Y59	Z59

399	1.995	245.59	1423.2	57.098	150.17	1218	174.2	166.04	1076.2	252.38	93.105	918.82	225.26	215.72	837.26	287.9	206.13	738.27	316.85	121.54	1221.4	-189.87	127.31	1061.1	-266.42	185.28	860.97	-304.31	210.28	753.19	-318.71	147.05	641.92	197.83	205.16	602.49	-194.17	251.75	1435.3	-38.451	111.99	253.54	-151.79	30.812	1151.7	119.54	204.22	566.79	155.59	155.31	581.58	-218.81	169.04	826.69	-177.32	214.8	1188.9	-8.63	151.72	475.97	147.43	153.04	120.43	33.658	262.55	720.61	-312.26	131.05	201.22	98.843	182.09	287.35	60.907	245.35	768.52	-268.31	177.34	499.09	-198.26	254.55	685.94	300.24	74.946	1275.6	1.5396	163.77	203.2	47.154	152.95	952.45	289.07	208.1	841.35	148.65	-14.353	1076.9	13.196	119.8	1365.6	-65.345	217.85	405.26	-173.99	232.68	739.19	249.26	113.01	1357.5	67.064	264.51	1083	-10.04	-53.623	850.74	62.801	138.11	238.79	-97.869	121.95	35.542	-103.34	196.96	303.41	-110.41	132.43	664.23	-230.26	74.931	913.86	-218.04	100.89	940.84	-286.11	36.756	141.05	-35.139	147.56	558.14	175.14	-71.717	848.13	-40.338	-37.521	155.04	-54.269	184.55	22.238	87.639	87.422	173.79	-88.834	34.293	64.449	-135.17	90.359	50.33	-67.923	138.1	390.22	117.46	-4.2024	145.28	-106.79	209.37	30.412	-6.3358	264.87	32.161	27.134	42.367	34.615	19.991	112.08	70.798	-15.913	99.907	58.97	65.907
400	2	250.59	1423.6	57.464	155.3	1218.4	174.56	171.33	1076.6	252.76	99.195	918.97	225.83	222.62	838.05	287.87	213.75	739	316.73	126.24	1221.8	-189.42	131.08	1061.7	-266.37	187.52	860.58	-305.02	210.81	752.51	-320.07	151.02	641.89	198.04	211.14	603.62	-194.07	256.7	1435.7	-38.086	122.95	252.57	-151.15	35.998	1152	119.98	207.55	566.48	155.6	161.33	582.29	-218.44	174.19	827.54	-177.08	219.89	1189.2	-8.3932	154.41	476	147.37	153.48	120.3	33.702	262.61	719.01	-313.94	131.87	201.19	98.904	183.42	287.04	61.06	246.3	766.97	-269.68	184.02	500.01	-197.71	262.7	687.25	300.1	80.075	1275.9	1.9935	164.64	203.01	47.257	159.11	952.83	289.45	212.62	841.56	149.39	-9.2093	1077.2	13.694	124.8	1365.9	-64.934	225.37	406.62	-173.25	240.22	740.23	249.13	118.09	1357.7	67.467	269.54	1083.4	-10.401	-48.616	851.08	63.011	149.49	238.41	-97.283	139.35	35.481	-102.82	206.72	304.44	-109.78	137.83	664.74	-230.03	78.512	914.63	-217.85	104.4	941.51	-285.91	50.647	138.07	-34.672	150.91	558.12	175.29	-66.682	848.73	-39.992	-24.09	149.84	-53.72	184.53	22.235	87.662	100.47	172.15	-88.261	50.632	61.61	-134.7	107.19	49.437	-67.47	140.01	390.22	117.51	9.6025	141.2	-106.27	209.4	30.422	-6.3018	264.94	32.077	27.167	42.437	34.892	19.97	112.29	70.873	-15.883	100.05	59.07	65.887
401	2.005	255.58	1423.9	57.811	160.44	1218.7	174.9	176.57	1077	253.13	105.27	919.09	226.35	229.48	838.84	287.85	221.33	739.71	316.59	130.98	1222.1	-188.99	134.9	1062.3	-266.33	189.76	860.2	-305.76	211.31	751.85	-321.48	155.08	641.85	198.17	217.1	604.7	-193.94	261.63	1436.1	-37.744	133.94	251.51	-150.49	41.191	1152.2	120.41	210.98	566.16	155.54	167.33	582.94	-218.07	179.37	828.34	-176.82	224.98	1189.5	-8.1704	157.25	476.01	147.28	153.91	120.17	33.746	262.63	717.45	-315.72	132.67	201.16	98.965	184.72	286.73	61.218	247.23	765.45	-271.14	190.65	500.87	-197.16	270.81	688.58	299.97	85.2	1276.2	2.4275	165.49	202.82	47.359	165.2	953.19	289.83	217.14	841.7	150.11	-4.0712	1077.4	14.19	129.8	1366.1	-64.547	232.75	407.92	-172.46	247.76	741.29	249	123.16	1357.9	67.845	274.55	1083.8	-10.771	-43.613	851.4	63.208	160.91	237.98	-96.673	156.91	35.501	-102.35	216.4	305.44	-109.09	143.23	665.2	-229.81	82.11	915.36	-217.69	107.93	942.16	-285.72	64.739	134.99	-34.222	154.37	558.08	175.36	-61.649	849.31	-39.672	-10.397	144.47	-53.185	184.5	22.233	87.685	113.66	170.45	-87.678	67.193	58.758	-134.28	124.21	48.556	-67.06	141.89	390.22	117.56	23.622	137	-105.77	209.43	30.428	-6.2664	265.01	31.99	27.207	42.513	35.179	19.943	112.51	70.951	-15.856	100.2	59.178	65.862
402	2.01	260.55	1424.3	58.138	165.59	1219.1	175.21	181.76	1077.3	253.5	111.33	919.17	226.82	236.3	839.61	287.85	228.86	740.42	316.43	135.78	1222.4	-188.58	138.79	1062.9	-266.28	191.97	859.83	-306.55	211.8	751.23	-322.95	159.22	641.77	198.24	223.02	605.7	-193.8	266.54	1436.5	-37.424	144.98	250.37	-149.82	46.388	1152.4	120.84	214.52	565.83	155.42	173.31	583.54	-217.72	184.57	829.08	-176.56	230.07	1189.8	-7.961	160.23	476	147.16	154.34	120.04	33.789	262.6	715.93	-317.58	133.44	201.13	99.024	186.01	286.42	61.38	248.16	763.97	-272.69	197.23	501.67	-196.6	278.9	689.91	299.83	90.32	1276.4	2.8412	166.33	202.64	47.461	171.23	953.52	290.2	221.66	841.79	150.81	1.0605	1077.7	14.683	134.8	1366.3	-64.182	239.99	409.13	-171.61	255.29	742.35	248.87	128.23	1358.1	68.201	279.56	1084.2	-11.14	-38.614	851.7	63.384	172.34	237.5	-96.043	174.58	35.626	-101.96	225.99	306.4	-108.35	148.64	665.61	-229.6	85.73	916.05	-217.55	111.47	942.77	-285.57	79.031	131.85	-33.797	157.94	558.04	175.37	-56.615	849.85	-39.385	3.5643	138.95	-52.665	184.48	22.23	87.708	126.98	168.71	-87.094	83.959	55.931	-133.91	141.38	47.707	-66.716	143.73	390.2	117.59	37.853	132.7	-105.29	209.46	30.431	-6.23	265.08	31.899	27.252	42.595	35.473	19.909	112.74	71.032	-15.836	100.36	59.293	65.833
403	2.015	265.52	1424.5	58.445	170.75	1219.3	175.51	186.91	1077.6	253.88	117.38	919.21	227.24	243.07	840.37	287.86	236.36	741.1	316.26	140.62	1222.7	-188.18	142.74	1063.3	-266.22	194.18	859.47	-307.38	212.27	750.65	-324.48	163.46	641.67	198.23	228.92	606.63	-193.63	271.45	1436.8	-37.124	156.03	249.17	-149.14	51.589	1152.6	121.26	218.16	565.47	155.25	179.26	584.06	-217.38	189.79	829.76	-176.28	235.16	1189.9	-7.7638	163.34	475.95	147.02	154.77	119.92	33.83	262.55	714.47	-319.53	134.2	201.11	99.081	187.27	286.11	61.542	249.07	762.52	-274.31	203.76	502.39	-196.03	286.96	691.24	299.7	95.437	1276.6	3.2342	167.16	202.45	47.561	177.2	953.82	290.57	226.2	841.82	151.46	6.1852	1077.9	15.173	139.79	1366.4	-63.838	247.06	410.27	-170.72	262.81	743.41	248.75	133.29	1358.2	68.537	284.57	1084.5	-11.503	-33.622	851.98	63.536	183.79	236.99	-95.396	192.35	35.876	-101.67	235.47	307.34	-107.58	154.05	665.97	-229.42	89.376	916.68	-217.42	115.02	943.36	-285.43	93.521	128.66	-33.402	161.6	557.97	175.31	-51.578	850.35	-39.138	17.798	133.33	-52.165	184.45	22.229	87.73	140.41	166.94	-86.516	100.91	53.162	-133.62	158.7	46.913	-66.453	145.56	390.18	117.62	52.292	128.34	-104.84	209.5	30.43	-6.1927	265.15	31.804	27.306	42.681	35.773	19.865	113	71.118	-15.824	100.52	59.414	65.798
404	2.02	270.48	1424.8	58.734	175.92	1219.6	175.79	192.03	1077.9	254.25	123.41	919.22	227.62	249.8	841.11	287.89	243.82	741.76	316.08	145.5	1222.9	-187.8	146.77	1063.7	-266.16	196.38	859.11	-308.25	212.73	750.1	-326.06	167.77	641.54	198.15	234.79	607.47	-193.42	276.36	1437	-36.843	167.11	247.93	-148.46	56.791	1152.8	121.67	221.89	565.07	155.04	185.2	584.53	-217.05	195.04	830.38	-176	240.25	1190.1	-7.5777	166.57	475.88	146.86	155.19	119.81	33.867	262.46	713.05	-321.55	134.95	201.09	99.135	188.52	285.81	61.703	249.99	761.11	-276.03	210.22	503.04	-195.46	294.97	692.55	299.56	100.55	1276.7	3.6058	167.97	202.26	47.657	183.11	954.08	290.93	230.76	841.8	152.07	11.302	1078	15.657	144.79	1366.5	-63.514	253.98	411.32	-169.77	270.32	744.47	248.63	138.35	1358.2	68.853	289.56	1084.7	-11.851	-28.636	852.24	63.659	195.24	236.46	-94.739	210.18	36.274	-101.48	244.85	308.25	-106.76	159.47	666.28	-229.26	93.052	917.26	-217.3	118.58	943.9	-285.3	108.2	125.45	-33.043	165.34	557.89	175.18	-46.538	850.8	-38.939	32.306	127.63	-51.691	184.42	22.228	87.751	153.95	165.17	-85.955	118.04	50.482	-133.4	176.14	46.199	-66.284	147.35	390.14	117.63	66.936	123.95	-104.42	209.54	30.425	-6.1548	265.22	31.706	27.367	42.769	36.079	19.81	113.27	71.212	-15.825	100.68	59.542	65.757
405	2.025	275.44	1425	59.005	181.1	1219.8	176.05	197.13	1078.2	254.61	129.43	919.18	227.95	256.49	841.81	287.94	251.23	742.38	315.89	150.42	1223.1	-187.45	150.88	1064	-266.09	198.57	858.76	-309.15	213.17	749.59	-327.68	172.16	641.37	198.01	240.63	608.23	-193.18	281.26	1437.2	-36.581	178.2	246.65	-147.78	61.993	1153	122.08	225.7	564.64	154.8	191.11	584.92	-216.73	200.31	830.91	-175.71	245.33	1190.2	-7.4017	169.89	475.76	146.69	155.62	119.71	33.9	262.35	711.68	-323.66	135.69	201.07	99.184	189.76	285.5	61.858	250.9	759.72	-277.82	216.61	503.61	-194.87	302.94	693.83	299.42	105.66	1276.8	3.9548	168.79	202.08	47.748	188.95	954.31	291.29	235.34	841.73	152.63	16.412	1078.2	16.132	149.79	1366.5	-63.21	260.73	412.28	-168.77	277.81	745.52	248.51	143.41	1358.3	69.149	294.55	1084.9	-12.176	-23.659	852.48	63.747	206.68	235.92	-94.077	228.06	36.841	-101.42	254.1	309.13	-105.9	164.9	666.52	-229.12	96.764	917.79	-217.19	122.15	944.41	-285.19	123.07	122.25	-32.724	169.15	557.78	175	-41.491	851.21	-38.792	47.088	121.88	-51.251	184.39	22.228	87.77	167.58	163.41	-85.419	135.32	47.922	-133.27	193.69	45.59	-66.214	149.13	390.09	117.64	81.781	119.55	-104.05	209.58	30.418	-6.1166	265.28	31.603	27.437	42.857	36.393	19.741	113.56	71.315	-15.841	100.84	59.676	65.711
